<mxfile host="65bd71144e">
    <diagram id="WxgbXv9d9g5bb5OhO38-" name="Page-1">
        <mxGraphModel dx="1315" dy="638" grid="0" gridSize="10" guides="0" tooltips="1" connect="0" arrows="0" fold="1" page="0" pageScale="1" pageWidth="583" pageHeight="827" math="0" shadow="0">
            <root>
                <mxCell id="0"/>
                <mxCell id="1" parent="0"/>
                <mxCell id="16" value="" style="rounded=0;whiteSpace=wrap;html=1;" parent="1" vertex="1">
                    <mxGeometry x="42" y="361" width="708" height="72" as="geometry"/>
                </mxCell>
                <mxCell id="21" value="&lt;font style=&quot;color: rgb(255, 255, 255);&quot;&gt;Create Claim&lt;/font&gt;" style="rounded=0;whiteSpace=wrap;html=1;movable=1;resizable=1;rotatable=1;deletable=1;editable=1;locked=0;connectable=1;fillColor=#3399FF;" parent="1" vertex="1">
                    <mxGeometry x="132" y="373" width="80" height="44" as="geometry"/>
                </mxCell>
                <mxCell id="6" value="Claim Processor" style="text;html=1;align=center;verticalAlign=middle;resizable=0;points=[];autosize=1;strokeColor=none;fillColor=none;" parent="1" vertex="1">
                    <mxGeometry x="404" y="132" width="110" height="30" as="geometry"/>
                </mxCell>
                <mxCell id="50" style="edgeStyle=none;html=1;exitX=0;exitY=0.5;exitDx=0;exitDy=0;entryX=0.917;entryY=0.583;entryDx=0;entryDy=0;entryPerimeter=0;" parent="1" source="12" target="9" edge="1">
                    <mxGeometry relative="1" as="geometry"/>
                </mxCell>
                <mxCell id="7" value="" style="rounded=0;whiteSpace=wrap;html=1;" parent="1" vertex="1">
                    <mxGeometry x="42" y="190" width="708" height="163" as="geometry"/>
                </mxCell>
                <mxCell id="5" value="Customer" style="text;html=1;align=center;verticalAlign=middle;resizable=0;points=[];autosize=1;strokeColor=none;fillColor=none;" parent="1" vertex="1">
                    <mxGeometry x="138" y="134" width="80" height="30" as="geometry"/>
                </mxCell>
                <mxCell id="8" value="Customer Agent" style="rounded=1;whiteSpace=wrap;html=1;fillColor=#0050ef;fontColor=#ffffff;strokeColor=#001DBC;" parent="1" vertex="1">
                    <mxGeometry x="173" y="270" width="110" height="50" as="geometry"/>
                </mxCell>
                <mxCell id="9" value="Claim Processor Agent" style="rounded=1;whiteSpace=wrap;html=1;fillColor=#0050ef;fontColor=#ffffff;strokeColor=#001DBC;" parent="1" vertex="1">
                    <mxGeometry x="335" y="266" width="112" height="52" as="geometry"/>
                </mxCell>
                <mxCell id="49" value="" style="edgeStyle=none;html=1;" parent="1" source="11" target="8" edge="1">
                    <mxGeometry relative="1" as="geometry"/>
                </mxCell>
                <mxCell id="11" value="&lt;font style=&quot;color: rgb(255, 255, 255);&quot;&gt;FAQ Knowledge&lt;/font&gt;" style="rounded=0;whiteSpace=wrap;html=1;fillColor=#0EBAED;" parent="1" vertex="1">
                    <mxGeometry x="60" y="273" width="90" height="40" as="geometry"/>
                </mxCell>
                <mxCell id="51" style="edgeStyle=none;html=1;exitX=0.019;exitY=0.251;exitDx=0;exitDy=0;exitPerimeter=0;" parent="1" source="12" edge="1">
                    <mxGeometry relative="1" as="geometry">
                        <mxPoint x="444" y="295" as="targetPoint"/>
                    </mxGeometry>
                </mxCell>
                <mxCell id="12" value="Rules &amp;amp; SOP&lt;div&gt;&lt;font style=&quot;color: rgb(255, 255, 255);&quot;&gt;Knowledge&lt;/font&gt;&lt;/div&gt;" style="rounded=0;whiteSpace=wrap;html=1;fillColor=#0EBAED;fontColor=#ffffff;strokeColor=#006EAF;" parent="1" vertex="1">
                    <mxGeometry x="480" y="284" width="75" height="45" as="geometry"/>
                </mxCell>
                <mxCell id="66" value="" style="group" parent="1" vertex="1" connectable="0">
                    <mxGeometry x="321" y="315" width="193" height="56" as="geometry"/>
                </mxCell>
                <mxCell id="62" value="" style="endArrow=none;html=1;" parent="66" edge="1">
                    <mxGeometry width="50" height="50" relative="1" as="geometry">
                        <mxPoint y="28" as="sourcePoint"/>
                        <mxPoint x="193" y="28" as="targetPoint"/>
                    </mxGeometry>
                </mxCell>
                <mxCell id="63" value="" style="endArrow=classic;html=1;" parent="66" edge="1">
                    <mxGeometry width="50" height="50" relative="1" as="geometry">
                        <mxPoint y="28" as="sourcePoint"/>
                        <mxPoint y="56" as="targetPoint"/>
                        <Array as="points"/>
                    </mxGeometry>
                </mxCell>
                <mxCell id="64" value="" style="endArrow=classic;html=1;" parent="66" edge="1">
                    <mxGeometry width="50" height="50" relative="1" as="geometry">
                        <mxPoint x="193" y="28" as="sourcePoint"/>
                        <mxPoint x="193" y="56" as="targetPoint"/>
                        <Array as="points"/>
                    </mxGeometry>
                </mxCell>
                <mxCell id="65" value="" style="endArrow=classic;html=1;" parent="66" edge="1">
                    <mxGeometry width="50" height="50" relative="1" as="geometry">
                        <mxPoint x="94.57000000000001" as="sourcePoint"/>
                        <mxPoint x="94.57000000000001" y="28" as="targetPoint"/>
                        <Array as="points"/>
                    </mxGeometry>
                </mxCell>
                <mxCell id="129" value="" style="endArrow=classic;html=1;" parent="66" edge="1">
                    <mxGeometry width="50" height="50" relative="1" as="geometry">
                        <mxPoint x="112.75263157894737" y="26.833333333333336" as="sourcePoint"/>
                        <mxPoint x="112.75263157894737" y="54.833333333333336" as="targetPoint"/>
                        <Array as="points"/>
                    </mxGeometry>
                </mxCell>
                <mxCell id="82" style="edgeStyle=none;html=1;entryX=0.436;entryY=-0.023;entryDx=0;entryDy=0;entryPerimeter=0;" parent="1" target="121" edge="1">
                    <mxGeometry relative="1" as="geometry">
                        <mxPoint x="631" y="354" as="targetPoint"/>
                        <mxPoint x="631" y="301" as="sourcePoint"/>
                        <Array as="points"/>
                    </mxGeometry>
                </mxCell>
                <mxCell id="75" value="Information Agent" style="rounded=1;whiteSpace=wrap;html=1;fillColor=#0050ef;fontColor=#ffffff;strokeColor=#001DBC;" parent="1" vertex="1">
                    <mxGeometry x="587" y="265" width="92" height="38" as="geometry"/>
                </mxCell>
                <mxCell id="84" style="edgeStyle=none;html=1;exitX=0.008;exitY=0.327;exitDx=0;exitDy=0;entryX=0.967;entryY=0.231;entryDx=0;entryDy=0;entryPerimeter=0;exitPerimeter=0;" parent="1" source="75" target="9" edge="1">
                    <mxGeometry relative="1" as="geometry">
                        <mxPoint x="815" y="280.5" as="sourcePoint"/>
                    </mxGeometry>
                </mxCell>
                <mxCell id="115" value="" style="sketch=0;outlineConnect=0;fontColor=#232F3E;gradientColor=none;fillColor=#232F3D;strokeColor=none;dashed=0;verticalLabelPosition=bottom;verticalAlign=top;align=center;html=1;fontSize=12;fontStyle=0;aspect=fixed;pointerEvents=1;shape=mxgraph.aws4.user;" parent="1" vertex="1">
                    <mxGeometry x="210" y="127" width="42" height="42" as="geometry"/>
                </mxCell>
                <mxCell id="116" value="Watsonx Orchestrate" style="text;html=1;align=center;verticalAlign=middle;whiteSpace=wrap;rounded=0;" parent="1" vertex="1">
                    <mxGeometry x="655" y="312" width="103" height="39" as="geometry"/>
                </mxCell>
                <mxCell id="117" value="&lt;font style=&quot;color: rgb(255, 255, 255);&quot;&gt;Check Claim Status&lt;/font&gt;" style="rounded=0;whiteSpace=wrap;html=1;movable=1;resizable=1;rotatable=1;deletable=1;editable=1;locked=0;connectable=1;fillColor=#3399FF;" parent="1" vertex="1">
                    <mxGeometry x="222" y="374" width="80" height="44" as="geometry"/>
                </mxCell>
                <mxCell id="118" value="&lt;font color=&quot;#ffffff&quot;&gt;Fetch Open Claims&lt;/font&gt;" style="rounded=0;whiteSpace=wrap;html=1;movable=1;resizable=1;rotatable=1;deletable=1;editable=1;locked=0;connectable=1;fillColor=#3399FF;" parent="1" vertex="1">
                    <mxGeometry x="311" y="372" width="80" height="44" as="geometry"/>
                </mxCell>
                <mxCell id="119" value="&lt;font color=&quot;#ffffff&quot;&gt;Fetch Open Claims&lt;/font&gt;" style="rounded=0;whiteSpace=wrap;html=1;movable=1;resizable=1;rotatable=1;deletable=1;editable=1;locked=0;connectable=1;fillColor=#3399FF;" parent="1" vertex="1">
                    <mxGeometry x="397" y="372" width="80" height="44" as="geometry"/>
                </mxCell>
                <mxCell id="120" value="&lt;font color=&quot;#ffffff&quot;&gt;Update Status&lt;/font&gt;" style="rounded=0;whiteSpace=wrap;html=1;movable=1;resizable=1;rotatable=1;deletable=1;editable=1;locked=0;connectable=1;fillColor=#3399FF;" parent="1" vertex="1">
                    <mxGeometry x="482" y="371" width="80" height="44" as="geometry"/>
                </mxCell>
                <mxCell id="121" value="&lt;font color=&quot;#ffffff&quot;&gt;Tavily&lt;/font&gt;" style="rounded=0;whiteSpace=wrap;html=1;movable=1;resizable=1;rotatable=1;deletable=1;editable=1;locked=0;connectable=1;fillColor=#3399FF;" parent="1" vertex="1">
                    <mxGeometry x="596" y="371" width="80" height="44" as="geometry"/>
                </mxCell>
                <mxCell id="124" value="" style="group" parent="1" vertex="1" connectable="0">
                    <mxGeometry x="178" y="324" width="98" height="48" as="geometry"/>
                </mxCell>
                <mxCell id="125" value="" style="endArrow=none;html=1;" parent="124" edge="1">
                    <mxGeometry width="50" height="50" relative="1" as="geometry">
                        <mxPoint y="24" as="sourcePoint"/>
                        <mxPoint x="98" y="24" as="targetPoint"/>
                    </mxGeometry>
                </mxCell>
                <mxCell id="126" value="" style="endArrow=classic;html=1;" parent="124" edge="1">
                    <mxGeometry width="50" height="50" relative="1" as="geometry">
                        <mxPoint y="24" as="sourcePoint"/>
                        <mxPoint y="48" as="targetPoint"/>
                        <Array as="points"/>
                    </mxGeometry>
                </mxCell>
                <mxCell id="127" value="" style="endArrow=classic;html=1;" parent="124" edge="1">
                    <mxGeometry width="50" height="50" relative="1" as="geometry">
                        <mxPoint x="98" y="24" as="sourcePoint"/>
                        <mxPoint x="98" y="48" as="targetPoint"/>
                        <Array as="points"/>
                    </mxGeometry>
                </mxCell>
                <mxCell id="128" value="" style="endArrow=classic;html=1;" parent="124" edge="1">
                    <mxGeometry width="50" height="50" relative="1" as="geometry">
                        <mxPoint x="48.02" as="sourcePoint"/>
                        <mxPoint x="48.02" y="24" as="targetPoint"/>
                        <Array as="points"/>
                    </mxGeometry>
                </mxCell>
                <mxCell id="19" value="" style="rounded=0;whiteSpace=wrap;html=1;" parent="1" vertex="1">
                    <mxGeometry x="-46" y="777" width="89" height="43" as="geometry"/>
                </mxCell>
                <mxCell id="24" value="" style="group;fillColor=#0050EF;fontColor=#ffffff;strokeColor=#001DBC;" parent="1" vertex="1" connectable="0">
                    <mxGeometry x="248" y="774" width="90" height="52" as="geometry"/>
                </mxCell>
                <mxCell id="25" value="" style="rounded=0;whiteSpace=wrap;html=1;movable=1;resizable=1;rotatable=1;deletable=1;editable=1;locked=0;connectable=1;" parent="24" vertex="1">
                    <mxGeometry width="90" height="52" as="geometry"/>
                </mxCell>
                <mxCell id="26" value="Fetch open claims" style="rounded=0;whiteSpace=wrap;html=1;fillColor=#0050ef;fontColor=#ffffff;strokeColor=#001DBC;" parent="24" vertex="1">
                    <mxGeometry width="90" height="52" as="geometry"/>
                </mxCell>
                <mxCell id="27" value="" style="group" parent="1" vertex="1" connectable="0">
                    <mxGeometry x="354" y="774" width="90" height="100" as="geometry"/>
                </mxCell>
                <mxCell id="28" value="" style="rounded=0;whiteSpace=wrap;html=1;movable=1;resizable=1;rotatable=1;deletable=1;editable=1;locked=0;connectable=1;" parent="27" vertex="1">
                    <mxGeometry width="90" height="51" as="geometry"/>
                </mxCell>
                <mxCell id="29" value="Fetch Open claims" style="rounded=0;whiteSpace=wrap;html=1;fillColor=#0050ef;fontColor=#ffffff;strokeColor=#001DBC;" parent="27" vertex="1">
                    <mxGeometry width="90" height="50" as="geometry"/>
                </mxCell>
                <mxCell id="30" value="" style="group" parent="1" vertex="1" connectable="0">
                    <mxGeometry x="454" y="774" width="90" height="100" as="geometry"/>
                </mxCell>
                <mxCell id="31" value="" style="rounded=0;whiteSpace=wrap;html=1;movable=1;resizable=1;rotatable=1;deletable=1;editable=1;locked=0;connectable=1;" parent="30" vertex="1">
                    <mxGeometry width="90" height="51" as="geometry"/>
                </mxCell>
                <mxCell id="32" value="Update Status" style="rounded=0;whiteSpace=wrap;html=1;fillColor=#0050ef;fontColor=#ffffff;strokeColor=#001DBC;" parent="30" vertex="1">
                    <mxGeometry width="90" height="50" as="geometry"/>
                </mxCell>
                <mxCell id="58" value="OpenAPI Spec" style="text;html=1;align=center;verticalAlign=middle;resizable=0;points=[];autosize=1;strokeColor=none;fillColor=none;" parent="1" vertex="1">
                    <mxGeometry x="374" y="433" width="97" height="26" as="geometry"/>
                </mxCell>
                <mxCell id="76" value="" style="group" parent="1" vertex="1" connectable="0">
                    <mxGeometry x="604" y="776" width="90" height="53" as="geometry"/>
                </mxCell>
                <mxCell id="77" value="" style="rounded=0;whiteSpace=wrap;html=1;movable=1;resizable=1;rotatable=1;deletable=1;editable=1;locked=0;connectable=1;" parent="76" vertex="1">
                    <mxGeometry width="90" height="52" as="geometry"/>
                </mxCell>
                <mxCell id="78" value="DuckDuckGo" style="rounded=0;whiteSpace=wrap;html=1;fillColor=#0050ef;fontColor=#ffffff;strokeColor=#001DBC;movable=1;resizable=1;rotatable=1;deletable=1;editable=1;locked=0;connectable=1;" parent="76" vertex="1">
                    <mxGeometry y="1" width="90" height="52" as="geometry"/>
                </mxCell>
                <mxCell id="20" value="Create Claim" style="rounded=0;whiteSpace=wrap;html=1;fillColor=#0050ef;fontColor=#ffffff;strokeColor=#001DBC;" parent="1" vertex="1">
                    <mxGeometry x="-47" y="778" width="89" height="40" as="geometry"/>
                </mxCell>
                <mxCell id="42" value="Policy Administration System (PAS)" style="rounded=0;whiteSpace=wrap;html=1;fillColor=#0EBAED;fontColor=#ffffff;strokeColor=#006EAF;" parent="1" vertex="1">
                    <mxGeometry x="105" y="468" width="570" height="60" as="geometry"/>
                </mxCell>
                <mxCell id="132" value="" style="endArrow=classic;html=1;" parent="1" edge="1" target="42" source="16">
                    <mxGeometry width="50" height="50" relative="1" as="geometry">
                        <mxPoint x="371" y="437" as="sourcePoint"/>
                        <mxPoint x="371" y="466" as="targetPoint"/>
                        <Array as="points">
                            <mxPoint x="371" y="453"/>
                        </Array>
                    </mxGeometry>
                </mxCell>
                <mxCell id="154" value="" style="sketch=0;outlineConnect=0;fontColor=#232F3E;gradientColor=none;fillColor=#232F3D;strokeColor=none;dashed=0;verticalLabelPosition=bottom;verticalAlign=top;align=center;html=1;fontSize=12;fontStyle=0;aspect=fixed;pointerEvents=1;shape=mxgraph.aws4.user;" parent="1" vertex="1">
                    <mxGeometry x="366" y="126" width="42" height="42" as="geometry"/>
                </mxCell>
                <mxCell id="155" value="" style="endArrow=classic;html=1;" parent="1" edge="1" target="8" source="167">
                    <mxGeometry width="50" height="50" relative="1" as="geometry">
                        <mxPoint x="222" y="240" as="sourcePoint"/>
                        <mxPoint x="222" y="275" as="targetPoint"/>
                    </mxGeometry>
                </mxCell>
                <mxCell id="156" value="" style="endArrow=classic;html=1;" parent="1" source="167" edge="1" target="9">
                    <mxGeometry width="50" height="50" relative="1" as="geometry">
                        <mxPoint x="388" y="245" as="sourcePoint"/>
                        <mxPoint x="388" y="270" as="targetPoint"/>
                    </mxGeometry>
                </mxCell>
                <mxCell id="164" value="" style="group" parent="1" vertex="1" connectable="0">
                    <mxGeometry x="663" y="127" width="87" height="64" as="geometry"/>
                </mxCell>
                <mxCell id="157" value="" style="rounded=0;whiteSpace=wrap;html=1;strokeColor=#FFFFFF;" parent="164" vertex="1">
                    <mxGeometry width="87" height="60" as="geometry"/>
                </mxCell>
                <mxCell id="158" value="" style="rounded=0;whiteSpace=wrap;html=1;fillColor=#0EBAED;" parent="164" vertex="1">
                    <mxGeometry x="10.15" y="41" width="11.600000000000001" height="15" as="geometry"/>
                </mxCell>
                <mxCell id="159" value="&lt;div&gt;Agent&lt;div&gt;&lt;br style=&quot;color: rgb(63, 63, 63);&quot;&gt;&lt;/div&gt;&lt;/div&gt;" style="text;html=1;align=center;verticalAlign=middle;whiteSpace=wrap;rounded=0;" parent="164" vertex="1">
                    <mxGeometry x="16.675" y="6" width="43.5" height="30" as="geometry"/>
                </mxCell>
                <mxCell id="160" value="&lt;div&gt;&lt;div&gt;Tools&lt;/div&gt;&lt;/div&gt;" style="text;html=1;align=center;verticalAlign=middle;whiteSpace=wrap;rounded=0;" parent="164" vertex="1">
                    <mxGeometry x="16.675" y="21" width="43.5" height="21" as="geometry"/>
                </mxCell>
                <mxCell id="161" value="Data" style="text;html=1;align=center;verticalAlign=middle;whiteSpace=wrap;rounded=0;" parent="164" vertex="1">
                    <mxGeometry x="15.950000000000001" y="34" width="43.5" height="30" as="geometry"/>
                </mxCell>
                <mxCell id="162" value="" style="rounded=0;whiteSpace=wrap;html=1;fillColor=#3399FF;" parent="164" vertex="1">
                    <mxGeometry x="10.15" y="23" width="11.600000000000001" height="15" as="geometry"/>
                </mxCell>
                <mxCell id="163" value="" style="rounded=0;whiteSpace=wrap;html=1;fillColor=#0050EF;" parent="164" vertex="1">
                    <mxGeometry x="10.15" y="6" width="11.600000000000001" height="15" as="geometry"/>
                </mxCell>
                <mxCell id="165" value="&lt;font style=&quot;font-size: 13px; color: rgb(255, 255, 255);&quot;&gt;Internet&lt;/font&gt;" style="rounded=0;whiteSpace=wrap;html=1;fillColor=#0EBAED;" parent="1" vertex="1">
                    <mxGeometry x="766" y="363" width="120" height="60" as="geometry"/>
                </mxCell>
                <mxCell id="166" value="" style="endArrow=classic;html=1;entryX=-0.012;entryY=0.556;entryDx=0;entryDy=0;entryPerimeter=0;" parent="1" target="165" edge="1">
                    <mxGeometry width="50" height="50" relative="1" as="geometry">
                        <mxPoint x="675" y="397" as="sourcePoint"/>
                        <mxPoint x="725" y="347" as="targetPoint"/>
                    </mxGeometry>
                </mxCell>
                <mxCell id="167" value="Supervisor Agent" style="rounded=1;whiteSpace=wrap;html=1;fillColor=#0050ef;fontColor=#ffffff;strokeColor=#001DBC;" vertex="1" parent="1">
                    <mxGeometry x="249" y="197" width="110" height="50" as="geometry"/>
                </mxCell>
                <mxCell id="168" value="" style="edgeStyle=none;orthogonalLoop=1;jettySize=auto;html=1;" edge="1" parent="1" source="115" target="167">
                    <mxGeometry width="80" relative="1" as="geometry">
                        <mxPoint x="228" y="174" as="sourcePoint"/>
                        <mxPoint x="308" y="174" as="targetPoint"/>
                        <Array as="points"/>
                    </mxGeometry>
                </mxCell>
                <mxCell id="171" value="" style="edgeStyle=none;orthogonalLoop=1;jettySize=auto;html=1;" edge="1" parent="1" source="154" target="167">
                    <mxGeometry width="80" relative="1" as="geometry">
                        <mxPoint x="298" y="177" as="sourcePoint"/>
                        <mxPoint x="378" y="177" as="targetPoint"/>
                        <Array as="points"/>
                    </mxGeometry>
                </mxCell>
            </root>
        </mxGraphModel>
    </diagram>
</mxfile>